/* XPM */
static char *dd3d88a830a84bf4bfa1abb86072afb4CBHNPyibMzsWmAea[] = {
/* columns rows colors chars-per-pixel */
"32 32 5 1 ",
"  c None",
". c black",
"X c #FFC20E",
"o c #FFF200",
"O c white",
/* pixels */
"             ......             ",
"          ...oooooo...          ",
"        ..ooooOooooooo..        ",
"       .ooooOXoooXoooooo.       ",
"     ..ooooOoXoooXooooooo..O    ",
"    .ooooOoooXXXXXooooooooo.    ",
"    .oooOoooXXXXXXXoooooooo.    ",
"   .oooOoooXXXoooXXXoooooooo.   ",
"  .oooOoooXXoXoooXoXXoooooooo.  ",
"  .ooOooooXooXoooXooXoooooooo.  ",
" .oooOoooXXooXoooXooXXoooooooo. ",
" .oooooooXXooXoooXooXXoooooooo. ",
" .ooOooooXXooXoooXoooXoooooooo. ",
".oooooooooXooXoooXooooooooooooX.",
".ooOooooooXXoXoooXooooooooooooX.",
".ooooooooooXXXoooXooooooooooooX.",
".ooOooooooooXXXXXXooooooooooooX.",
".ooooooooooooXXXXXXooooooooooXX.",
".ooOoooooooooXoooXXXoooooooooXX.",
" .oOoooooooooXoooXoXXooooooooX. ",
" .oooooooooooXoooXooXoooooooXX. ",
" .ooOoooooXooXoooXooXoooooooXX. ",
"  .oooooooXooXoooXooXooooooXX.  ",
"  .ooOooooXXoXoooXoXXooooooXX.  ",
"   .oooooooXXXoooXXXooooooXX.   ",
"    .oooooooXXXXXXXooooooXX.    ",
"    .ooooooooXXXXXooooooXXX.    ",
"     ..ooooooXoooXooooXXX..     ",
"       .oooooXoooXooXXXX.       ",
"        ..oooooooXXXXX..        ",
"          ...XXXXXX...          ",
"             ......             "
};
