/* XPM */
static char *_d7087bbb7364a60866f7080d76c83e5l7psYJplSkaTzR9Q[] = {
/* columns rows colors chars-per-pixel */
"32 32 5 1 ",
"  c None",
". c black",
"X c #464646",
"o c #9C5A3C",
"O c #B4B4B4",
/* pixels */
"            XOXXX..O            ",
"          XXXXOXXXX...          ",
"        XOXXXXXOXXOXX...        ",
"       XXOXX o  o  oXXO..       ",
"      XOXXo  o  o  o  XX..      ",
"     XXXOooooooooooooooXX..     ",
"    OXXX  o  o  o  o  o XX..    ",
"   XXOXo  o  o  o  o  o  oX..   ",
"   XXOooooooooooooooooooooXX.   ",
"  XXXX o  o  o  o  o  o  oXOX.  ",
"  XXX  o  o  o  o  o  o  o XX.  ",
"  OXXooooooooooooooooooooooXX.  ",
" XXOX  o  o  o  o  o  o  o XXX. ",
" XXXo  o  o  o  o  o  o  o  OX. ",
" XXXooooooooooooooooooooooooXX. ",
" XXXo  o  o  o  o  o  o  o  XX. ",
" XXXo  o  o  o  o  o  o  o  XX. ",
" OOOooooooooooooooooooooooooOO. ",
" XXXo  o  o  o  o  o  o  o  XX. ",
" XXXo  o  o  o  o  o  o  o  XX. ",
" XXXooooooooooooooooooooooooXX. ",
" OOOo  o  o  o  o  o  o  o  OO. ",
" XXXo  o  o  o  o  o  o  o  XX. ",
" XXXooooooooooooooooooooooooXX. ",
" XXXo  o  o  o  o  o  o  o  XX. ",
" OOOo  o  o  o  o  o  o  o  OO. ",
" XXXooooooooooooooooooooooooXX. ",
" XXXo  o  o  o  o  o  o  o  XX. ",
" XXXo  o  o  o  o  o  o  o  XX. ",
" OOOooooooooooooooooooooooooOO. ",
" XXXo  o  o  o  o  o  o  o  XX. ",
" XXXo  o  o  o  o  o  o  o  XX. "
};
