/* XPM */
static char *ffb4ce30fd93445be63ae8ecf1586e60rSlghFhYn7JMaBfj[] = {
/* columns rows colors chars-per-pixel */
"32 32 2 1 ",
"  c #22B14C",
". c #A8E61D",
/* pixels */
".................... ...........",
"..................... . ........",
"...................... .........",
".... ...........................",
". . ... ........................",
".. ..... . ....... .............",
"......... ..... . ..............",
"................ ......... .....",
"........... ........... . ......",
"........ . ............. .......",
"......... ....... ..............",
".............. . ...............",
"....... ....... ................",
"........ . .....................",
"......... ......................",
"......................... ......",
"... ............ ......... . ...",
".... . .......... . ....... ....",
"..... ........ ... .............",
".............. .................",
"........... . ..................",
"............ ...................",
"... ............................",
".... . .........................",
"..... ..........................",
"......... ............ .........",
"...... . .......... . ..........",
"....... ............ ...........",
"................................",
"................................",
"................................",
"................................"
};
