/* XPM */
static char *_6f0d41385654d89d141f0cb3bd8d90745FLehhYMVcGMWkO[] = {
/* columns rows colors chars-per-pixel */
"32 32 9 1 ",
"  c None",
". c black",
"X c #990030",
"o c #9C5A3C",
"O c #22B14C",
"+ c #A8E61D",
"@ c #4D6DF3",
"# c #FFF9BD",
"$ c white",
/* pixels */
"          .OO.                  ",
"         .OOOO..                ",
"         .O+++OO.               ",
"         .O++++OO.              ",
"       ...O+++++OO.             ",
"      .OOOOO+++++OO.            ",
"      .O+++OOOO+++O.            ",
"      .O+++ ++OOO+OO.           ",
"      .OOO++++++OOOO..          ",
"       ..OOOOOOOOOOOOO.         ",
"         ........OOOOO.         ",
"         .#######....OO.        ",
"        .##.###..#.  ..         ",
"        .#####$####.            ",
"         .########.             ",
"          .####XX#.             ",
"           .#####.              ",
"           ......               ",
"          ..@@@@@.              ",
"         .@@@@@@@@.             ",
"        .@@@@@@@@@@.            ",
"        .@@.@@@@@@@@.           ",
"        ....@@@@@@...           ",
"        .##.......##.           ",
"        .##.ooooo.##.           ",
"         ...ooooo...            ",
"           .oo.oo.              ",
"           .oo.oo.              ",
"           .......              ",
"           .oo.oo..             ",
"           .oo.oooo.            ",
"           .oo.oooo.            "
};
