/* XPM */
static char *_caf9a642e694ef3c75b9b138fd9a69977HruopEVd19NMh8[] = {
/* columns rows colors chars-per-pixel */
"32 32 5 1 ",
"  c None",
". c black",
"X c #9C5A3C",
"o c #22B14C",
"O c #A8E61D",
/* pixels */
"             .....              ",
"           ..OOOO..             ",
"         ..OOOooOOO.            ",
"       ..OOOoooooooO.           ",
"      .OOooooooooooOO.....      ",
"    ..OOOoooooooooooOOOOO..     ",
"   .OOOooooooooooooooooooOO..   ",
"  .OOoooooooooooooooooooooOOO.  ",
" .OOooooOoooooooooooooooooooOO. ",
" .OoooOOoooooooooooooooooooooO. ",
" .OooOOoooooOOOooooooOOOooooooo.",
".OoooooooooooooOOOoOOoooOOOOooo.",
".oooooooooooooooooOOooooooooooo.",
".oooooooooooooooooooooooooooooo.",
".ooooooOOooooooooooooooooooooo..",
"..ooooooOOooooooOOOOoooooooooo. ",
" .ooooooooOOoooOOooooooOOoooo.. ",
" ..oooooooooooOOoooOOOOOooooo.  ",
"  ..oooooooooooooooooooooooo..  ",
"   ..ooooooooooooooooooooo...   ",
"    ..oooooooooooooooooo....    ",
"     ...oooooooooooooo....      ",
"      ...ooooooooooo....        ",
"        ......o......           ",
"            ....X.              ",
"            .XXXX..             ",
"            ..XXXX.             ",
"             ..XXX..            ",
"              .XXXX.            ",
"              .XXXX.            ",
"             .XX.XXX.           ",
"            .XX..XXXX.          "
};
